<svg xmlns="http://www.w3.org/2000/svg" xmlns:xlink="http://www.w3.org/1999/xlink" width="1024" height="512" viewBox="0 0 1024 512">
  <defs>
    <linearGradient id="linear-gradient" x1="1" x2="0" y2="1" gradientUnits="objectBoundingBox">
      <stop offset="0" stop-color="#60b6d7"/>
      <stop offset="1" stop-color="#52bce2"/>
    </linearGradient>
    <filter id="路径_3" x="121.5" y="351.5" width="137" height="65" filterUnits="userSpaceOnUse">
      <feOffset dy="3" input="SourceAlpha"/>
      <feGaussianBlur stdDeviation="7.5" result="blur"/>
      <feFlood flood-opacity="0"/>
      <feComposite operator="in" in2="blur"/>
      <feComposite in="SourceGraphic"/>
    </filter>
    <clipPath id="clip-Logo_-_Light-_Square_1">
      <rect width="1024" height="512"/>
    </clipPath>
  </defs>
  <g id="Logo_-_Light-_Square_1" data-name="Logo - Light- Square – 1" clip-path="url(#clip-Logo_-_Light-_Square_1)">
    <g id="组_3" data-name="组 3">
      <path id="路径_2" data-name="路径 2" d="M22.344-194.712H144.172v25.27H50.806v60.382H134.33v25.27H50.806V0H22.344ZM184.6-160.4a15.97,15.97,0,0,1-11.97-5.32,17.561,17.561,0,0,1-5.054-12.5,17.109,17.109,0,0,1,5.054-12.369,16.157,16.157,0,0,1,11.97-5.187,16.759,16.759,0,0,1,12.5,5.187,17.109,17.109,0,0,1,5.054,12.369,17.328,17.328,0,0,1-5.187,12.5A16.68,16.68,0,0,1,184.6-160.4ZM198.436,0h-27.4V-138.054h27.4ZM300.58-141.246a43.214,43.214,0,0,1,12.9,1.862,24.415,24.415,0,0,1,9.443,5.054L312.55-112.784a25.584,25.584,0,0,0-13.566-3.724q-15.162,0-24.605,12.5t-9.443,35.644V0h-27.4V-138.054h24.206q.532,12.768,1.6,22.344,6.118-12.768,15.561-19.152A37.791,37.791,0,0,1,300.58-141.246ZM369.208,0h-27.4V-202.426h27.4ZM466.83-141.246q18.088,0,31.654,8.379A56.89,56.89,0,0,1,519.5-109.991a70.259,70.259,0,0,1,7.448,32.585,96.845,96.845,0,0,1-1.33,14.63H428.792q1.6,20.748,12.768,31.255t27.93,10.507q21.812,0,31.654-18.088l20.482,11.97q-5.32,14.364-20.216,22.211a70.232,70.232,0,0,1-33.25,7.847,70.717,70.717,0,0,1-34.314-8.379,61.543,61.543,0,0,1-24.605-24.871q-9.177-16.492-9.177-39.368,0-22.344,9.177-38.57a62.214,62.214,0,0,1,24.472-24.605A67.828,67.828,0,0,1,466.83-141.246Zm-1.064,23.94a34.788,34.788,0,0,0-23.541,8.645q-9.975,8.645-12.635,25.137h68.628q-1.064-15.96-9.842-24.871T465.766-117.306ZM653.3-39.9q0,19.418-14.763,31.122T600.1,2.926q-21.014,0-35.91-9.044a44.105,44.105,0,0,1-19.95-25l20.482-11.97Q569.24-31.92,578.284-26.2T600.1-20.482q11.438,0,18.221-4.655a14.8,14.8,0,0,0,6.783-12.9,14.232,14.232,0,0,0-4.123-10.507A29.2,29.2,0,0,0,610.6-55.062q-6.251-2.394-17.157-5.586a185.847,185.847,0,0,1-23.009-7.714,40.411,40.411,0,0,1-14.9-11.039q-6.251-7.315-6.251-19.551a37.254,37.254,0,0,1,7.049-22.477,44.238,44.238,0,0,1,18.886-14.763,66.059,66.059,0,0,1,26.2-5.054q18.886,0,32.319,8.246T651.7-110.656l-20.482,11.7a30,30,0,0,0-11.837-13.566q-7.847-4.788-18.753-4.788-10.374,0-16.758,4.123a13.264,13.264,0,0,0-6.384,11.837,12.3,12.3,0,0,0,3.857,9.443,29.837,29.837,0,0,0,9.709,5.852q5.852,2.261,16.492,5.187a183.919,183.919,0,0,1,23.541,7.98,41.3,41.3,0,0,1,15.694,11.97Q653.3-52.934,653.3-39.9Zm124.488,0q0,19.418-14.763,31.122t-38.437,11.7q-21.014,0-35.91-9.044a44.105,44.105,0,0,1-19.95-25l20.482-11.97Q693.728-31.92,702.772-26.2t21.812,5.719q11.438,0,18.221-4.655a14.8,14.8,0,0,0,6.783-12.9,14.232,14.232,0,0,0-4.123-10.507,29.2,29.2,0,0,0-10.374-6.517q-6.251-2.394-17.157-5.586a185.847,185.847,0,0,1-23.009-7.714,40.411,40.411,0,0,1-14.9-11.039q-6.251-7.315-6.251-19.551a37.254,37.254,0,0,1,7.049-22.477,44.238,44.238,0,0,1,18.886-14.763,66.059,66.059,0,0,1,26.2-5.054q18.886,0,32.319,8.246t17.955,22.344l-20.482,11.7a30,30,0,0,0-11.837-13.566q-7.847-4.788-18.753-4.788-10.374,0-16.758,4.123a13.264,13.264,0,0,0-6.384,11.837,12.3,12.3,0,0,0,3.857,9.443,29.837,29.837,0,0,0,9.709,5.852q5.852,2.261,16.492,5.187a183.921,183.921,0,0,1,23.541,7.98,41.3,41.3,0,0,1,15.694,11.97Q777.784-52.934,777.784-39.9Z" transform="translate(120 345)" fill="#092733"/>
      <g transform="matrix(1, 0, 0, 1, 0, 0)" filter="url(#路径_3)">
        <path id="路径_3-2" data-name="路径 3" d="M1,0H91a1,1,0,0,1,1,1V19a1,1,0,0,1-1,1H1a1,1,0,0,1-1-1V1A1,1,0,0,1,1,0Z" transform="translate(144 371)" fill="url(#linear-gradient)"/>
      </g>
    </g>
  </g>
</svg>
